<svg xmlns="http://www.w3.org/2000/svg" viewBox="0 0 200 200"><defs><style>.cls-1{fill:#ccc;}.cls-2{fill:#ffe89b;}.cls-2,.cls-3,.cls-4,.cls-6{stroke:#151515;}.cls-2,.cls-3,.cls-4,.cls-5,.cls-6{stroke-miterlimit:10;}.cls-3{fill:#c9ceff;}.cls-4{fill:#59577c;}.cls-5{fill:none;stroke:#c2feff;}.cls-6{fill:#c2feff;}</style></defs><title>apoyo_izq</title><g id="Layer_1" data-name="Layer 1"><rect class="cls-1" width="200" height="200"/><rect class="cls-1" width="200" height="200"/></g><g id="Layer_3" data-name="Layer 3"><path class="cls-2" d="M129,85.93a29.09,29.09,0,1,0-45.26,24.18,7.44,7.44,0,0,1,3.29,6.19v4.62h25.77v-4.62a7.44,7.44,0,0,1,3.28-6.18A29.05,29.05,0,0,0,129,85.93Z"/><path class="cls-3" d="M100,21.54A78.46,78.46,0,1,0,178.46,100,78.46,78.46,0,0,0,100,21.54Zm0,147.3A68.83,68.83,0,1,1,168.83,100,68.83,68.83,0,0,1,100,168.83Z"/><path class="cls-4" d="M87.07,124.55h25.77a0,0,0,0,1,0,0v3.61a2.54,2.54,0,0,1-2.54,2.54H89.6a2.54,2.54,0,0,1-2.54-2.54v-3.61A0,0,0,0,1,87.07,124.55Z"/><path class="cls-4" d="M88.51,133h22.88a0,0,0,0,1,0,0v3.76a2.39,2.39,0,0,1-2.39,2.39H90.9a2.39,2.39,0,0,1-2.39-2.39V133a0,0,0,0,1,0,0Z"/><path class="cls-4" d="M92.46,141.37h15a0,0,0,0,1,0,0v4.21a1.93,1.93,0,0,1-1.93,1.93H94.39a1.93,1.93,0,0,1-1.93-1.93v-4.21A0,0,0,0,1,92.46,141.37Z"/><polyline class="cls-5" points="105.64 88.34 111.53 76.55 114.71 100.58 118.88 79.74 120.84 88.84 126.08 86.2"/><path class="cls-5" d="M91.67,87.77c.3.16-3.28,11.58-3.28,11.58L84.55,77.78,81.12,97.15,77.44,86.36,74,88.84"/><polygon class="cls-6" points="100.81 59.93 85.12 84.75 102.76 93.99 97.43 116.7 114.89 86.84 97.26 79.29 100.81 59.93"/></g></svg>