<svg xmlns="http://www.w3.org/2000/svg" viewBox="0 0 200 200"><defs><style>.cls-1{fill:#ccc;}.cls-2{fill:#9798ad;}.cls-2,.cls-3,.cls-4,.cls-5,.cls-6{stroke:#151515;stroke-miterlimit:10;}.cls-3{fill:#c9ceff;}.cls-4{fill:none;}.cls-5{fill:#fbcc34;}.cls-6{fill:#59577c;}</style></defs><title>apoyo_der</title><g id="Layer_1" data-name="Layer 1"><rect class="cls-1" width="200" height="200"/></g><g id="Layer_3" data-name="Layer 3"><path class="cls-2" d="M136.61,68.6h-33V62.34H96.4V68.6h-33a2.28,2.28,0,0,0-2.28,2.28V111a2.28,2.28,0,0,0,2.28,2.28H85.17l-6.33,24.4h6.95L95,113.26H105l9.25,24.4h6.95l-6.33-24.4h21.77a2.28,2.28,0,0,0,2.28-2.28V70.88A2.28,2.28,0,0,0,136.61,68.6Z"/><rect class="cls-3" x="62.85" y="70.28" width="74.3" height="41.3" rx="2.14" ry="2.14"/><line class="cls-4" x1="69.96" y1="74.74" x2="69.96" y2="107.12"/><line class="cls-4" x1="118.75" y1="107.12" x2="69.96" y2="107.12"/><polyline class="cls-4" points="69.96 107.12 81.9 87.5 88.38 94.99 107.82 78.79"/><line class="cls-4" x1="117.74" y1="75.96" x2="132.12" y2="75.96"/><line class="cls-4" x1="117.74" y1="78.79" x2="132.12" y2="78.79"/><line class="cls-4" x1="117.74" y1="81.63" x2="132.12" y2="81.63"/><line class="cls-4" x1="117.74" y1="84.46" x2="132.12" y2="84.46"/><line class="cls-4" x1="117.74" y1="87.3" x2="132.12" y2="87.3"/><line class="cls-4" x1="117.74" y1="90.13" x2="132.12" y2="90.13"/><rect class="cls-5" x="120.08" y="95.08" width="12.04" height="12.04"/><path class="cls-6" d="M100,21.54A78.46,78.46,0,1,0,178.46,100,78.46,78.46,0,0,0,100,21.54Zm0,147.3A68.83,68.83,0,1,1,168.83,100,68.83,68.83,0,0,1,100,168.83Z"/></g></svg>