<svg xmlns="http://www.w3.org/2000/svg" viewBox="0 0 200 50"><defs><style>.cls-1{fill:#ececec;}.cls-2{fill:#000a8b;}.cls-3,.cls-4{fill:#fff;}.cls-4{fill-rule:evenodd;}.cls-5{font-size:15.79px;fill:#0275d8;font-family:HelveticaNeue-CondensedBold, Helvetica Neue;font-weight:700;}</style></defs><title>logo_top_horizontal</title><g id="Layer_3" data-name="Layer 3"><rect class="cls-1" width="200" height="50"/><rect class="cls-2" x="13.74" y="4.8" width="42.88" height="40.4" rx="2.64" ry="2.64"/><path class="cls-3" d="M24.53,23.56H32c1.34,0,2.93,1.13,2.93,3.65C35,30,33.36,31,32,31h-7.5c-1.34,0-2.9-1-2.9-3.77C21.64,24.69,23.2,23.56,24.53,23.56Zm0,2.52a1.19,1.19,0,0,0,0,2.38H32a1.18,1.18,0,0,0,1.11-1.25A1.2,1.2,0,0,0,32,26.08Z"/><path class="cls-3" d="M32.77,37.72a1.87,1.87,0,0,0,.33-1.09A1.2,1.2,0,0,0,32,35.34H21.8V32.8H32.06c1.32,0,2.89,1,2.89,3.83A3.22,3.22,0,0,1,34.14,39Z"/><path class="cls-3" d="M40.67,33l-1.41,0v6H36.63V24.11h4.12c2.51,0,3.71,1.86,3.71,4.22C44.47,31.39,42.65,33,40.67,33Zm-.89-2.26c1.71,0,2.2-.21,2.2-2.36,0-1.18-.27-2.11-1.33-2.11H39.25v4.47Z"/><path class="cls-3" d="M48.37,38.88H45.73V24.11h2.64Z"/><path class="cls-4" d="M36.73,20.84a5.43,5.43,0,0,1,.9-.29,5.08,5.08,0,0,1,1.43-.14,5.23,5.23,0,0,1,.81.1A3.11,3.11,0,0,1,42.15,22c1.73-2,3.75-1.78,5.88-1a8.81,8.81,0,0,0-2.23-5.27,13.18,13.18,0,0,0-9.53-4.57c0-.59,0-1.3-.78-1.29s-.74.71-.78,1.3A13.72,13.72,0,0,0,27,14a10.23,10.23,0,0,0-4.09,7.1,5.17,5.17,0,0,1,3.18-.63A3.31,3.31,0,0,1,28.79,22a3.49,3.49,0,0,1,.44-.48,4,4,0,0,1,.47-.42,3.22,3.22,0,0,1,1.12-.52,5.34,5.34,0,0,1,1.25-.16,5,5,0,0,1,1.17.11,5.58,5.58,0,0,1,1,.34,1.83,1.83,0,0,1,.44.31,4.29,4.29,0,0,1,.5.48s.18.21.16.24a8.34,8.34,0,0,1,1-.83A2.33,2.33,0,0,1,36.73,20.84Z"/><text class="cls-5" transform="translate(71.37 21.61)">Innovando la forma<tspan x="0" y="18.95">de protegerte</tspan></text></g></svg>